# xmcd CD database file
#
# Track frame offsets:
#	150
#	13925
#	32142
#	48307
#	61235
#	75655
#	94665
#	99350
#	104635
#	111862
#	121405
#	127392
#	133155
#	138220
#	148480
#	154755
#	160455
#	167722
#	174670
#	189505
#	197760
#	205067
#	218970
#	228622
#	244192
#	264375
#	272107
#	294795
#	305307
#	322020
#
# Disc length: 4507 seconds
#
# Revision: 5
# Processed by: cddbd v1.5.2PL0 Copyright (c) Steve Scherf et al.
# Submitted via: CDex 1.70beta3
#
DISCID=c711991e
DTITLE=佐橋俊彦 - 仮面ライダークウガ　音楽集2
DYEAR=2000
DGENRE=Anime
TTITLE0=発端
TTITLE1=仮面ライダークウガ!!(インストゥルメンタル)
TTITLE2=壊乱
TTITLE3=焦眉
TTITLE4=危急
TTITLE5=変化
TTITLE6=安穏
TTITLE7=幻妖
TTITLE8=懊悩
TTITLE9=突撃
TTITLE10=閑寂
TTITLE11=示威
TTITLE12=予兆
TTITLE13=転身
TTITLE14=真摯
TTITLE15=幕間
TTITLE16=虐殺
TTITLE17=現象
TTITLE18=追跡
TTITLE19=激情
TTITLE20=太古
TTITLE21=武闘
TTITLE22=孤独
TTITLE23=踏査
TTITLE24=疾駆
TTITLE25=勇気
TTITLE26=迫撃
TTITLE27=究極
TTITLE28=未来
TTITLE29=青空になる(インストゥルメンタル)
EXTD=YEAR: 2000
EXTT0=
EXTT1=
EXTT2=
EXTT3=
EXTT4=
EXTT5=
EXTT6=
EXTT7=
EXTT8=
EXTT9=
EXTT10=
EXTT11=
EXTT12=
EXTT13=
EXTT14=
EXTT15=
EXTT16=
EXTT17=
EXTT18=
EXTT19=
EXTT20=
EXTT21=
EXTT22=
EXTT23=
EXTT24=
EXTT25=
EXTT26=
EXTT27=
EXTT28=
EXTT29=
PLAYORDER=
